<svg xmlns="http://www.w3.org/2000/svg" width="55" height="55" viewBox="0 0 55 55"><defs><style>.a,.d{fill:none;}.a{stroke:#e06c57;stroke-width:2px;opacity:0.769;}.b{fill:#e07a5f;}.c{stroke:none;}</style></defs><g transform="translate(-218 -99)"><g class="a" transform="translate(218 99)"><circle class="c" cx="27.5" cy="27.5" r="27.5"/><circle class="d" cx="27.5" cy="27.5" r="26.5"/></g><g transform="translate(220.895 114.197)"><path class="b" d="M49.54,25.5C46.7,24.081,36.4,21.692,34.367,21.229c-1.43-3.786-4.356-6.937-7.967-7.283V11.069a.653.653,0,1,0-1.305,0v2.877c-3.611.346-6.538,3.5-7.969,7.283C15.1,21.692,4.79,24.081,1.955,25.5c-.752.377-.82.838-.744,1.158.172.727,2.155,1.236,5.893,1.529a3.325,3.325,0,1,0,4.952.235q2,.049,4.359.055c.91,4.243,4.428,6.965,9.333,6.965s8.422-2.722,9.332-6.965q2.362-.006,4.359-.055a3.28,3.28,0,0,0-.743,2.067,3.317,3.317,0,1,0,5.695-2.3c3.738-.292,5.722-.8,5.894-1.529C50.36,26.335,50.292,25.876,49.54,25.5Zm-40.058,7a2.012,2.012,0,1,1,2.012-2.013A2.014,2.014,0,0,1,9.482,32.5Zm32.53,0a2.012,2.012,0,1,1,2.012-2.013A2.014,2.014,0,0,1,42.012,32.5ZM3.131,26.4c3-1.225,10.661-3.057,13.529-3.723a13.858,13.858,0,0,0-.487,3.548c0,.32.017.633.042.943A95.69,95.69,0,0,1,3.131,26.4Zm22.616,7.734c-5.024,0-8.269-3.1-8.269-7.909,0-5.1,3.614-11.022,8.269-11.022s8.268,5.924,8.268,11.022C34.015,31.03,30.771,34.134,25.747,34.134Zm9.531-6.966c.026-.308.042-.623.042-.943a13.94,13.94,0,0,0-.486-3.55c2.868.667,10.53,2.5,13.529,3.725A95.711,95.711,0,0,1,35.279,27.168Z" transform="translate(-1.187 -10.416)"/><path class="b" d="M21.747,14.773a.646.646,0,0,0-.338,0c-.21.056-5.157,1.458-6.563,8.443a.654.654,0,0,0,.641.782H27.671a.654.654,0,0,0,.641-.782C26.9,16.232,21.957,14.829,21.747,14.773Zm-5.441,7.918c1.27-4.9,4.488-6.325,5.273-6.6.789.281,4,1.7,5.273,6.6Z" transform="translate(2.982 -9.092)"/></g></g></svg>