<svg xmlns="http://www.w3.org/2000/svg" width="60.53" height="57.344" viewBox="0 0 60.53 57.344"><defs><style>.a{fill:#e07a5f;}</style></defs><g transform="translate(-9418.001 -1482)"><path class="a" d="M42.49,89.464a23.843,23.843,0,0,0,15.956,6.114q.759,0,1.524-.048a23.79,23.79,0,0,0,15.906-7.46l4.838,4.315a3.085,3.085,0,0,0,.3,4.286l7.606,6.783a3.005,3.005,0,0,0,2.011.77q.1,0,.192-.006a3,3,0,0,0,2.089-1.031l1.2-1.371a3.086,3.086,0,0,0-.27-4.319l-7.418-6.616a3.275,3.275,0,0,0-4.433.069l-4.847-4.323a24.557,24.557,0,0,0-2.766-33.634A23.942,23.942,0,0,0,40.337,55.1,24.552,24.552,0,0,0,42.49,89.464Zm41.661,2.51.088,0a1.357,1.357,0,0,1,.909.346l7.418,6.616a1.156,1.156,0,0,1,.1,1.618l-1.2,1.371a1.115,1.115,0,0,1-1.586.1L82.28,95.237a1.156,1.156,0,0,1-.1-1.618l.595-.681h0l.437-.5a1.354,1.354,0,0,1,.943-.464ZM41.773,56.365A21.919,21.919,0,0,1,57.01,48.844q.7-.044,1.4-.044a21.955,21.955,0,0,1,14.69,5.63,22.622,22.622,0,0,1,1.986,31.664,21.919,21.919,0,0,1-15.237,7.522q-.7.044-1.4.044a21.956,21.956,0,0,1-14.69-5.63A22.622,22.622,0,0,1,41.773,56.365Z" transform="translate(9383.67 1435.12)"/><path class="a" d="M161.013,122.9a.974.974,0,0,0-1.947,0,6.855,6.855,0,0,0,6.193,6.814V132.8a.974.974,0,1,0,1.947,0v-3.084a6.912,6.912,0,0,0,6.259-6.814v-.641a6.913,6.913,0,0,0-6.259-6.814V105.018a4.905,4.905,0,0,1,4.246,4.854.974.974,0,1,0,1.947,0,6.855,6.855,0,0,0-6.193-6.814V99.974a.974.974,0,1,0-1.947,0v3.084A6.912,6.912,0,0,0,159,109.872v.641a6.913,6.913,0,0,0,6.259,6.814v10.426A4.905,4.905,0,0,1,161.013,122.9Zm10.5-.641v.641a4.963,4.963,0,0,1-4.312,4.854V117.4A4.963,4.963,0,0,1,171.517,122.258Zm-10.57-11.745v-.641a4.963,4.963,0,0,1,4.312-4.854v10.349A4.964,4.964,0,0,1,160.947,110.513Z" transform="translate(9275.921 1390.249)"/></g></svg>