<svg xmlns="http://www.w3.org/2000/svg" width="70" height="53" viewBox="0 0 70 53"><defs><style>.a{fill:none;}.b{fill:#fa4144;}</style></defs><g transform="translate(-665 -158)"><rect class="a" width="70" height="53" transform="translate(665 158)"/><path class="b" d="M16.153,51.246a.989.989,0,0,0,.943-1.028V28.5a15.945,15.945,0,0,1,9.7,1,15.7,15.7,0,0,1,3.593,2.37,16.542,16.542,0,0,0,3.584,2.4,14.4,14.4,0,0,0,6.2,1.322,21.378,21.378,0,0,0,5.715-.838A3.052,3.052,0,0,0,48,31.763V16.131a3.2,3.2,0,0,0-1.061-2.412,2.62,2.62,0,0,0-2.358-.607,14.735,14.735,0,0,1-9.856-.6,14.8,14.8,0,0,1-3.221-2.16,17.481,17.481,0,0,0-3.985-2.617,17.919,17.919,0,0,0-11.549-.982,1.012,1.012,0,0,0-.759,1.028V50.218A.989.989,0,0,0,16.153,51.246ZM17.1,8.624a15.831,15.831,0,0,1,9.7,1.028,15.709,15.709,0,0,1,3.593,2.37A16.527,16.527,0,0,0,33.974,14.4a16.421,16.421,0,0,0,11.035.72.846.846,0,0,1,.755.2,1.066,1.066,0,0,1,.354.807V31.763a1.019,1.019,0,0,1-.693.992c-4.126,1.147-7.724,1.028-10.7-.381a14.807,14.807,0,0,1-3.221-2.16A17.471,17.471,0,0,0,27.518,27.6a16.534,16.534,0,0,0-7.012-1.5,20.8,20.8,0,0,0-3.428.293V8.624Z" transform="translate(668.791 155.754)"/></g></svg>