<svg xmlns="http://www.w3.org/2000/svg" width="52.5" height="22.437" viewBox="0 0 52.5 22.437"><defs><style>.a{fill:#fa4144;}</style></defs><path class="a" d="M49.313,5a11.293,11.293,0,0,0-10.125,6.375,21.365,21.365,0,0,0-4.938-.625,18.123,18.123,0,0,0-4.938.625A11.293,11.293,0,0,0,19.188,5,11.176,11.176,0,0,0,8,16.187a11.315,11.315,0,0,0,8.875,11,18.182,18.182,0,0,0,1.938.25h.375A11.176,11.176,0,0,0,30.375,16.25a12.075,12.075,0,0,0-.437-3.062,19.275,19.275,0,0,1,4.25-.5,18.421,18.421,0,0,1,4.25.5A10.085,10.085,0,0,0,38,16.25,11.176,11.176,0,0,0,49.188,27.437h.375a6.594,6.594,0,0,0,1.938-.25A11.2,11.2,0,0,0,49.313,5ZM28.563,16.187A9.336,9.336,0,0,1,19.25,25.5h-.562a9.791,9.791,0,0,1-1.875-.312A9.31,9.31,0,1,1,27.438,11.875a8.491,8.491,0,0,1,.688,1.75A7.131,7.131,0,0,1,28.563,16.187ZM51.688,25.25a9.791,9.791,0,0,1-1.875.312H49.25a9.336,9.336,0,0,1-9.313-9.312,8.767,8.767,0,0,1,.375-2.562A14.556,14.556,0,0,1,41,11.937a9.349,9.349,0,0,1,17.625,4.25A9.393,9.393,0,0,1,51.688,25.25Z" transform="translate(-8 -5)"/></svg>