<svg height='100px' width='100px'  fill="#000000" xmlns="http://www.w3.org/2000/svg" xmlns:xlink="http://www.w3.org/1999/xlink" version="1.1" x="0px" y="0px" viewBox="-247 370.9 100 100" style="enable-background:new -247 370.9 100 100;" xml:space="preserve"><path d="M-159.5,392.9h-75c-1.1,0-2-0.9-2-2l0,0c0-1.1,0.9-2,2-2h75c1.1,0,2,0.9,2,2l0,0C-157.5,392-158.4,392.9-159.5,392.9z"></path><path d="M-159.5,422.9h-75c-1.1,0-2-0.9-2-2l0,0c0-1.1,0.9-2,2-2h75c1.1,0,2,0.9,2,2l0,0C-157.5,422-158.4,422.9-159.5,422.9z"></path><path d="M-159.5,452.9h-75c-1.1,0-2-0.9-2-2l0,0c0-1.1,0.9-2,2-2h75c1.1,0,2,0.9,2,2l0,0C-157.5,452-158.4,452.9-159.5,452.9z"></path></svg>