<svg xmlns="http://www.w3.org/2000/svg" width="55" height="55" viewBox="0 0 55 55"><defs><style>.a,.d{fill:none;}.a{stroke:#e06c57;stroke-width:2px;opacity:0.769;}.b{fill:#e06c57;}.c{stroke:none;}</style></defs><g transform="translate(-976 -45)"><g class="a" transform="translate(976 45)"><circle class="c" cx="27.5" cy="27.5" r="27.5"/><circle class="d" cx="27.5" cy="27.5" r="26.5"/></g><g transform="translate(988 56)"><path class="b" d="M33.709,969.362a.559.559,0,0,0-.307.092L18.184,981.236a.5.5,0,0,0-.184.4v19.636a.51.51,0,0,0,.491.491H28.8a.51.51,0,0,0,.491-.491V989.98h8.836v11.291a.51.51,0,0,0,.491.491H48.927a.51.51,0,0,0,.491-.491V981.635a.5.5,0,0,0-.184-.4L34.016,969.454a.479.479,0,0,0-.307-.092Zm0,1.1L48.436,981.88v18.9H39.109V989.489a.51.51,0,0,0-.491-.491H28.8a.51.51,0,0,0-.491.491v11.291H18.982v-18.9Z" transform="translate(-18 -969.362)"/></g></g></svg>