<svg xmlns="http://www.w3.org/2000/svg" width="60" height="60" viewBox="0 0 60 60"><defs><style>.a{fill:#e07a5f;}.b,.d{fill:none;}.b{stroke:#e06c57;}.c{stroke:none;}</style></defs><g transform="translate(-1005 -660)"><g transform="translate(1022 670)"><path class="a" d="M19.884,39.262H22.99a3.148,3.148,0,0,0,3.189-3.108V31.982a2.955,2.955,0,0,0,1.847-2.7V28.3a9.312,9.312,0,0,1,2.77-6.544,11.8,11.8,0,0,0,3.693-8.916A12.687,12.687,0,0,0,21.479,0,13.154,13.154,0,0,0,8.386,11.37a12.425,12.425,0,0,0,3.693,10.306,9.046,9.046,0,0,1,2.77,6.3V29.2a2.872,2.872,0,0,0,1.847,2.7v4.172A3.165,3.165,0,0,0,19.884,39.262Zm4.7-3.108a1.486,1.486,0,0,1-1.511,1.472H19.968a1.561,1.561,0,0,1-1.595-1.472V32.227h6.211Zm-8.058-6.871V28.056a10.5,10.5,0,0,0-3.273-7.443,10.471,10.471,0,0,1-3.189-9c1.511-9.652,10.408-9.9,11.415-9.979,3.189-.164,11.415,2.536,11.415,11.206a10.808,10.808,0,0,1-3.273,7.771A10.9,10.9,0,0,0,26.347,28.3v.982A1.309,1.309,0,0,1,25,30.591H17.786A1.291,1.291,0,0,1,16.527,29.283Z" transform="translate(-8.31 0)"/></g><g class="b" transform="translate(1005 660)"><circle class="c" cx="30" cy="30" r="30"/><circle class="d" cx="30" cy="30" r="29.5"/></g></g></svg>