<svg xmlns="http://www.w3.org/2000/svg" width="60" height="60" viewBox="0 0 60 60"><defs><style>.a{fill:#e07a5f;stroke:#e07a5f;}.b,.d{fill:none;}.b{stroke:#e06c57;}.c{stroke:none;}</style></defs><g transform="translate(-142 -660)"><path class="a" d="M38.823,70.326a13.128,13.128,0,0,0,8.785,3.366q.418,0,.839-.026A13.1,13.1,0,0,0,57.2,69.559l2.664,2.376a1.7,1.7,0,0,0,.163,2.36l4.188,3.734a1.655,1.655,0,0,0,1.107.424q.053,0,.106,0a1.654,1.654,0,0,0,1.15-.567l.659-.755a1.7,1.7,0,0,0-.149-2.378l-4.084-3.643a1.8,1.8,0,0,0-2.441.038L57.9,68.764a13.521,13.521,0,0,0-1.523-18.518,13.182,13.182,0,0,0-18.739,1.159A13.518,13.518,0,0,0,38.823,70.326Zm22.938,1.382.049,0a.747.747,0,0,1,.5.191l4.084,3.642a.637.637,0,0,1,.056.891l-.659.755a.614.614,0,0,1-.873.053L60.73,73.5a.637.637,0,0,1-.056-.891L61,72.239h0l.241-.275a.745.745,0,0,1,.519-.256ZM38.428,52.1a12.068,12.068,0,0,1,8.389-4.141q.388-.024.772-.024a12.088,12.088,0,0,1,8.088,3.1A12.455,12.455,0,0,1,56.771,68.47a12.068,12.068,0,0,1-8.389,4.141q-.387.024-.772.024a12.088,12.088,0,0,1-8.088-3.1A12.455,12.455,0,0,1,38.428,52.1Z" transform="translate(121.17 627.62)"/><g class="b" transform="translate(142 660)"><circle class="c" cx="30" cy="30" r="30"/><circle class="d" cx="30" cy="30" r="29.5"/></g></g></svg>