<svg xmlns="http://www.w3.org/2000/svg" width="47" height="46" viewBox="0 0 47 46"><defs><style>.a{fill:#fa4144;stroke:#ff303d;}</style></defs><g transform="translate(0.5 0.5)"><path class="a" d="M36.414,959.362a5.738,5.738,0,0,0-5.883,5.756,5.657,5.657,0,0,0,3.209,4.987v2.338H24.113a3.733,3.733,0,0,0-3.744,3.663v9.419H18a5.825,5.825,0,0,0-5.114-3.139A5.932,5.932,0,0,0,7,988.108c-.007.142,0,.457,0,.556a5.738,5.738,0,0,0,5.883,5.756,5.831,5.831,0,0,0,5.1-3.14h2.39l.033,9.419a3.712,3.712,0,0,0,3.711,3.663H34.275a.55.55,0,0,0,.535-.523v-3.14a.534.534,0,0,0-.3-.474,4.642,4.642,0,0,1,1.905-8.944h.535a4.779,4.779,0,0,1,4.814,4.709,4.665,4.665,0,0,1-2.908,4.235.534.534,0,0,0-.3.474v3.14a.55.55,0,0,0,.535.523H49.251a3.733,3.733,0,0,0,3.744-3.663V976.106a3.733,3.733,0,0,0-3.744-3.663H39.623v-2.338a5.657,5.657,0,0,0,3.209-4.987,5.923,5.923,0,0,0-5.883-5.756Zm1.008,1.075a4.811,4.811,0,0,1,4.34,4.681,4.664,4.664,0,0,1-2.908,4.235.534.534,0,0,0-.3.474v3.14a.55.55,0,0,0,.535.523H49.251a2.683,2.683,0,0,1,2.674,2.616V1000.7a2.683,2.683,0,0,1-2.674,2.616H39.623v-2.338a5.658,5.658,0,0,0,3.209-4.987,5.877,5.877,0,0,0-5.867-5.756h-.552a5.738,5.738,0,0,0-5.883,5.756,5.657,5.657,0,0,0,3.209,4.987v2.338H24.113a2.665,2.665,0,0,1-2.641-2.633l-.033-9.942a.55.55,0,0,0-.535-.507H17.694a.551.551,0,0,0-.485.294,4.768,4.768,0,0,1-4.329,2.845,4.619,4.619,0,0,1-4.814-4.709c0-.083,0-.47,0-.507a4.85,4.85,0,0,1,4.814-4.726,4.754,4.754,0,0,1,4.329,2.829.548.548,0,0,0,.485.311H20.9a.55.55,0,0,0,.535-.523v-9.942a2.683,2.683,0,0,1,2.674-2.616H34.275a.55.55,0,0,0,.535-.523v-3.14a.534.534,0,0,0-.3-.474,4.642,4.642,0,0,1,1.905-8.944h.5A4.043,4.043,0,0,1,37.422,960.437Z" transform="translate(-6.995 -959.362)"/></g></svg>