<svg xmlns="http://www.w3.org/2000/svg" width="55" height="55" viewBox="0 0 55 55"><defs><style>.a{fill:#e06c57;}</style></defs><path class="a" d="M57.8,10.773H52.223V5.2a1.2,1.2,0,0,0-2.041-.845L45.021,9.511a26.778,26.778,0,1,0,8.466,8.465l5.163-5.162a1.2,1.2,0,0,0-.846-2.041ZM55.186,32.21A24.4,24.4,0,1,1,43.279,11.252l-3.461,3.461a1.2,1.2,0,0,0-.35.845v2.572a16.559,16.559,0,0,0-8.677-2.474h0a16.587,16.587,0,1,0,14.075,7.87h2.574a1.2,1.2,0,0,0,.845-.35l3.463-3.461A24.278,24.278,0,0,1,55.186,32.21ZM39.467,21.84l-5.142,5.142a6.321,6.321,0,1,0,1.691,1.691l5.144-5.144h.8a14.149,14.149,0,1,1-11.169-5.48h0a14.161,14.161,0,0,1,8.677,2.988v.8ZM34.711,32.21a3.934,3.934,0,1,1-2.129-3.485l-2.64,2.641a1.2,1.2,0,1,0,1.691,1.691l2.64-2.64A3.89,3.89,0,0,1,34.711,32.21Zm16.4-15.244L51.083,17l-4.141,4.139H41.858V16.055l4.133-4.133c.016-.015.032-.031.047-.047l3.794-3.793v3.886a1.2,1.2,0,0,0,1.2,1.2h3.889Z" transform="translate(-4 -3.999)"/></svg>