<svg xmlns="http://www.w3.org/2000/svg" width="60" height="60" viewBox="0 0 60 60"><defs><style>.a{fill:#e07a5f;}.b,.d{fill:none;}.b{stroke:#e06c57;}.c{stroke:none;}</style></defs><g transform="translate(-429 -660)"><g transform="translate(-144 45)"><g transform="translate(587 629)"><path class="a" d="M2.375,34H8.838a1.379,1.379,0,0,0,1.375-1.375V27.537a1.379,1.379,0,0,0-1.375-1.375H5.606V20.319H16.812v5.844H14.269a1.379,1.379,0,0,0-1.375,1.375v5.087A1.379,1.379,0,0,0,14.269,34h6.462a1.379,1.379,0,0,0,1.375-1.375V27.537a1.379,1.379,0,0,0-1.375-1.375H18.188V20.319H29.394v5.844H26.162a1.379,1.379,0,0,0-1.375,1.375v5.087A1.379,1.379,0,0,0,26.162,34h6.463A1.379,1.379,0,0,0,34,32.625V27.537a1.379,1.379,0,0,0-1.375-1.375H30.769V19.631a.65.65,0,0,0-.687-.688H18.188V14.406h7.425a1.379,1.379,0,0,0,1.375-1.375V2.375A1.379,1.379,0,0,0,25.612,1H9.387A1.379,1.379,0,0,0,8.012,2.375V12.962a1.379,1.379,0,0,0,1.375,1.375h7.425v4.538H4.919a.65.65,0,0,0-.687.688v6.531H2.375A1.379,1.379,0,0,0,1,27.469v5.156A1.379,1.379,0,0,0,2.375,34Zm30.25-6.462v5.087H26.162V27.537ZM9.387,12.962V2.375H25.681V12.962ZM20.731,27.537v5.087H14.269V27.537Zm-18.356,0H8.838v5.087H2.375Z" transform="translate(-1 -1)"/></g><g class="b" transform="translate(573 615)"><circle class="c" cx="30" cy="30" r="30"/><circle class="d" cx="30" cy="30" r="29.5"/></g></g></g></svg>