<svg xmlns="http://www.w3.org/2000/svg" width="55" height="55" viewBox="0 0 55 55"><defs><style>.a{fill:#e07a5f;stroke:#e07a5f;}.b,.d{fill:none;}.b{stroke:#e06c57;stroke-width:2px;opacity:0.769;}.c{stroke:none;}</style></defs><g transform="translate(-10107 -1465)"><g transform="translate(10121.474 1479.474)"><path class="a" d="M47.964,30.282H22.224A.224.224,0,0,1,22,30.058V22.224A.224.224,0,0,1,22.224,22H47.964a.224.224,0,0,1,.224.224v7.834A.224.224,0,0,1,47.964,30.282Zm-25.517-.448H47.741V22.448H22.448Z" transform="translate(-22 -22)"/><g transform="translate(13.43 10.072)"><path class="a" d="M274.535,218.116H262.224a.224.224,0,0,1-.224-.224V202.224a.224.224,0,0,1,.224-.224h12.311a.224.224,0,0,1,.224.224v15.668A.224.224,0,0,1,274.535,218.116Zm-12.087-.448h11.863V202.448H262.448Z" transform="translate(-262 -202)"/></g><g transform="translate(0 10.072)"><path class="a" d="M33.415,209.163H22.224a.224.224,0,0,1-.224-.224v-6.715a.224.224,0,0,1,.224-.224H33.415a.224.224,0,0,1,.224.224v6.715A.224.224,0,0,1,33.415,209.163Zm-10.968-.448H33.192v-6.267H22.448Z" transform="translate(-22 -202)"/></g><g transform="translate(0 19.026)"><path class="a" d="M33.415,369.163H22.224a.224.224,0,0,1-.224-.224v-6.715a.224.224,0,0,1,.224-.224H33.415a.224.224,0,0,1,.224.224v6.715A.224.224,0,0,1,33.415,369.163Zm-10.968-.448H33.192v-6.267H22.448Z" transform="translate(-22 -362)"/></g></g><g class="b" transform="translate(10107 1465)"><circle class="c" cx="27.5" cy="27.5" r="27.5"/><circle class="d" cx="27.5" cy="27.5" r="26.5"/></g></g></svg>