<svg xmlns="http://www.w3.org/2000/svg" xmlns:xlink="http://www.w3.org/1999/xlink" width="923" height="591" viewBox="0 0 923 591"><defs><style>.a{clip-path:url(#b);}.b{fill:#fa3266;}.c{fill:#f58e87;}.d{fill:#fa5e55;}.e{fill:#ffd97e;}</style><clipPath id="b"><rect width="923" height="591"/></clipPath></defs><g id="a" class="a"><rect class="e" width="923" height="591"/><path class="b" d="M59.516,593.165V466.409s56.717-53.477,87.41-70.63a37.031,37.031,0,0,1,20.689-4.294c7.6.578,19.911-.362,24.562-11.411,0,0,14.5,20.46,49.161-10.979,0,0,55.462-52.4,71.849-47.908,0,0,35.293,16.469,126.051,87.831,0,0,8.193-15.969,9.454-26.449,0,0,27.67-7.729,73.922,31.076,10.774,9.04,25.7,14.355,41.4,14.472,15.429.116,35.607-3.558,59.26-16.6,0,0,126.051-34.434,129.832-74.357,0,0,8.193,24.952,16.386,22.955,0,0,67.2-36.387,107.535-88.287,0,0,27.971,45.369,58.853,26.9,0,0,17.647-2,46.639,45.912V593.165Z" transform="translate(-59.516 -92.917)"/><path class="c" d="M67.429,81.909V-8.153s49.513-41.468,105.027-11.015c0,0,39.533,15.55,95.047-23.326,0,0,44.579-33.693,154.765,7.127,0,0,52.149,31.1,66.45,27.862,0,0,26.915-.648,21.869-20.734,0,0,8.41,11.015,56.355-12.311,0,0,30.28-25.269,68.971,5.831,0,0,110.188-20.734,150.561-51.186,0,0,39.532-31.749,96.729,29.157,0,0,27.756,38.875,41.215,32.4,0,0,10.093-18.141,25.233-3.887,0,0,15.982-7.776,17.663-26.565,0,0,16.777,23.974,23.552,23.326V85.634Z" transform="translate(-67.866 472.318)"/><path class="d" d="M29.093,197.881V138.534s18.341-31.876,40.151,0c0,0,19.293-18.454,41.1,0,0,0,35.23,30.2,67.946-10.067,0,0,36.069-54.523,46.974-44.458,0,0,5.033,9.228,23.488,14.26,0,0,5.032-16.74,26.841-15.5,0,0,21.811,10.468,41.1,37.311,0,0,59.557,46.974,121.631,30.2,0,0,26-10.9,31.875-26.841,0,0,12.74,24.325,22.728,13.421,0,0,17.536-29.359,48.573-4.194,0,0,44.458,44.458,110.725-.839,0,0,69.622-80.527,135.891-10.9,0,0,26.841-19.293,36.908-5.871,0,0,5.032,27,12.582,25.245,0,0,42.781-4.275,43.62-14.341,0,0,22.647,30.2,52.007,6.71l19.292-20.131v85.35Z" transform="translate(-29.531 393.119)"/></g></svg>